# AST/ASF file generated using VICON BodyLanguage
# -----------------------------------------------
:version 1.10
:name VICON
:units
  mass 1.0
  length 0.45
  angle deg
:documentation
   .ast/.asf automatically generated from VICON data using
   VICON BodyBuilder and BodyLanguage model FoxedUp or BRILLIANT.MOD
:root
   order TX TY TZ RX RY RZ
   axis XYZ
   position 0 0 0  
   orientation 0 0 0 
:bonedata
  begin
     id 1 
     name lhipjoint
     direction 0.521689 -0.742065 0.420928 
     length 2.47002 
     axis 0 0 0  XYZ
  end
  begin
     id 2 
     name lfemur
     direction 0.34202 -0.939693 0  
     length 7.24654  
     axis 0 0 20  XYZ
    dof rx ry rz
    limits (-160.0 20.0)
           (-70.0 70.0)
           (-60.0 70.0)
  end
  begin
     id 3 
     name ltibia
     direction 0.34202 -0.939693 0   
     length 8.04849   
     axis 0 0 20   XYZ
    dof rx
    limits (-10.0 170.0)
  end
  begin
     id 4 
     name lfoot
     direction 0.0745411 -0.2048 0.975961   
     length 1.72367   
     axis -90 7.62852e-016 20   XYZ
    dof rx rz
    limits (-45.0 90.0)
           (-70.0 20.0)
  end
  begin
     id 5 
     name ltoes
     direction 1.53556e-011 -4.21901e-011 1   
     length 0.87311   
     axis -90 7.62852e-016 20   XYZ
    dof rx
    limits (-90.0 20.0)
  end
  begin
     id 6 
     name rhipjoint
     direction -0.52849 -0.738415 0.418857   
     length 2.48223  
     axis 0 0 0  XYZ 
  end
  begin
     id 7 
     name rfemur
     direction -0.34202 -0.939693 0   
     length 7.15571   
     axis 0 0 -20   XYZ
    dof rx ry rz
    limits (-160.0 20.0)
           (-70.0 70.0)
           (-70.0 60.0)
  end
  begin
     id 8 
     name rtibia
     direction -0.34202 -0.939693 0   
     length 7.81659   
     axis 0 0 -20   XYZ
    dof rx
    limits (-10.0 170.0)
 end
 begin
     id 9 
     name rfoot
     direction -0.0917348 -0.252039 0.963359   
     length 1.84382  
     axis -90 -7.62852e-016 -20   XYZ
    dof rx rz
    limits (-45.0 90.0)
           (-20.0 70.0)
  end
  begin
     id 10 
     name rtoes
     direction -1.53551e-011 -4.21879e-011 1   
     length 0.927771   
     axis -90 -7.62852e-016 -20   XYZ
    dof rx
    limits (-90.0 20.0)
  end
  begin
     id 11 
     name lowerback
     direction 0.00583058 0.999822 0.0179296   
     length 2.1429   
     axis 0 0 0   XYZ
    dof rx ry rz
    limits (-20.0 45.0)
           (-30.0 30.0)
           (-30.0 30.0)
  end
  begin
     id 12 
     name upperback
     direction -0.0137999 0.999752 -0.0175071   
     length 2.14252   
     axis 0 0 0   XYZ
    dof rx ry rz
    limits (-20.0 45.0)
           (-30.0 30.0)
           (-30.0 30.0)
  end
  begin
     id 13 
     name thorax
     direction -0.0158036 0.99955 -0.0254909   
     length 2.1383   
     axis 0 0 0   XYZ
    dof rx ry rz
    limits (-20.0 45.0)
           (-30.0 30.0)
           (-30.0 30.0)
  end
  begin
     id 14 
     name lowerneck
     direction -0.0101179 0.999403 -0.0330262   
     length 1.65808   
     axis 0 0 0   XYZ
    dof rx ry rz
    limits (-20.0 45.0)
           (-30.0 30.0)
           (-30.0 30.0)
  end
  begin
     id 15 
     name upperneck
     direction 0.0497734 0.995978 -0.074501   
     length 1.5897   
     axis 0 0 0   XYZ
    dof rx ry rz
    limits (-20.0 45.0)
           (-30.0 30.0)
           (-30.0 30.0)
  end
  begin
     id 16
     name head
     direction 0.0189524 0.999519 -0.0245438  
     length 1.74024  
     axis 0 0 0   XYZ
    dof rx ry rz
    limits (-20.0 45.0)
           (-30.0 30.0)
           (-30.0 30.0)
  end
  begin
     id 17 
     name lclavicle
     direction 0.945604 0.324422 0.0241537  
     length 3.59089  
     axis 0 0 0   XYZ
    dof ry rz
    limits (-20.0 10.0)
           (0.0 20.0)
  end
  begin
     id 18 
     name lhumerus
     direction 1 -4.48964e-011 -2.63524e-027   
     length 5.2391   
     axis 180 -30 -90   XYZ
    dof rx ry rz
    limits (-60.0 90.0)
           (-90.0 90.0)
           (-90.0 90.0)
  end
  begin
     id 19
     name lradius
     direction 1 -4.48969e-011 3.86978e-028   
     length 3.31467   
     axis 180 -30 -90   XYZ
    dof rx
    limits (-10.0 170.0)
  end
  begin
     id 20
     name lwrist
     direction 1 -4.48963e-011 7.20928e-028   
     length 1.65734   
     axis -5.52449e-016 90 90   XYZ
    dof ry
    limits (-180.0 0.0)
 end
  begin
     id 21 
     name lhand
     direction 1 -4.48964e-011 1.44186e-027   
     length 0.9659   
     axis -9.20027e-016 90 90   XYZ
    dof rx rz
    limits (-90.0 90.0)
           (-45.0 45.0)
  end
  begin
     id 22 
     name lfingers
     direction 1 -4.48965e-011 2.88371e-027   
     length 0.778733   
     axis -1.84005e-015 90 90   XYZ
    dof rx
    limits (0.0 90.0)
  end
  begin
     id 23
     name lthumb
     direction 0.707107 -6.34931e-011 0.707107   
     length 1.11811   
     axis -90 45 2.85299e-015   XYZ
    dof rx rz
    limits (-45.0 45.0)
           (-45.0 45.0)
  end
  begin
     id 24 
     name rclavicle
     direction -0.923762 0.370785 0.0958234   
     length 3.54196  
     axis 0 0 0   XYZ 
    dof ry rz
    limits (-10.0 20.0)
           (-20.0 0.0)
  end
  begin
     id 25 
     name rhumerus
     direction -1 -4.48966e-011 1.18702e-017  
     length 5.30252   
     axis 180 30 90   XYZ
    dof rx ry rz
    limits (-90.0 60.0)
           (-90.0 90.0)
           (-90.0 90.0)
  end
  begin
     id 26 
     name rradius
     direction -1 -4.48966e-011 4.46736e-027   
     length 3.67875   
     axis 180 30 90   XYZ
    dof rx
    limits (-10.0 170.0)
  end
  begin
     id 27 
     name rwrist
     direction -1 -4.48966e-011 7.20928e-028   
     length 1.83937   
     axis -5.52449e-016 -90 -90   XYZ
    dof ry
    limits (-180.0 0.0)
  end
  begin
     id 28
     name rhand
     direction -1 -4.48973e-011 1.44186e-027   
     length 0.594811   
     axis -9.20027e-016 -90 -90   XYZ
    dof rx rz
    limits (-90.0 90.0)
           (-45.0 45.0)
  end
  begin
     id 29
     name rfingers
     direction -1 -4.48963e-011 2.88371e-027   
     length 0.479552   
     axis -1.84005e-015 -90 -90   XYZ
    dof rx
    limits (0.0 90.0)
  end
  begin
     id 30
     name rthumb
     direction -0.707107 -6.34932e-011 0.707107   
     length 0.688544   
     axis -90 -45 -2.85299e-015   XYZ
    dof rx rz
    limits (-45.0 45.0)
           (-45.0 45.0)
  end
:hierarchy
  begin
    root lhipjoint rhipjoint lowerback
    lhipjoint lfemur
    lfemur ltibia
    ltibia lfoot
    lfoot ltoes
    rhipjoint rfemur
    rfemur rtibia
    rtibia rfoot
    rfoot rtoes
    lowerback upperback
    upperback thorax
    thorax lowerneck lclavicle rclavicle
    lowerneck upperneck
    upperneck head
    lclavicle lhumerus
    lhumerus lradius
    lradius lwrist
    lwrist lhand lthumb
    lhand lfingers
    rclavicle rhumerus
    rhumerus rradius
    rradius rwrist
    rwrist rhand rthumb
    rhand rfingers
  end

#!OML:ASF E:\acrobat2\Project_11_07_03\Capture day 1\Session 1\Acrobat.ASF
:FULLY-SPECIFIED
:DEGREES
547
root 2.95485 17.2386 27.4805 -542.591 -12.0617 -531.768
lowerback 5.25649 2.23246 2.34954
upperback 3.09576 2.84167 -3.20586
thorax 0.530339 1.39046 -4.75898
lowerneck 3.36262 14.9702 5.35197
upperneck -11.076 20.0118 -4.04245
head -3.2019 9.80506 -2.77278
rclavicle 1.15295e-014 -9.06458e-014
rhumerus -31.1476 -17.1402 -19.1864
rradius 54.8486
rwrist -24.7103
rhand -17.9084 -39.3722
rfingers 7.12502
rthumb 8.35869 -69.1868
lclavicle 1.15295e-014 -9.06458e-014
lhumerus 23.3744 -46.2435 54.9048
lradius 37.1352
lwrist 13.7573
lhand -28.4297 -21.7537
lfingers 7.12502
lthumb -1.80089 8.21842
rfemur -15.5802 -23.3512 -2.86126
rtibia 45.9631
rfoot 9.91132 -11.5552
rtoes 8.48858
lfemur -1.29092 16.8295 2.60999
ltibia 40.1875
lfoot -35.3017 -9.48877
ltoes 21.9
548
root 2.92309 17.2572 27.53 -542.389 -11.4085 -531.101
lowerback 4.86017 2.27284 3.05011
upperback 3.0784 2.93477 -3.15099
thorax 0.778337 1.45874 -5.08477
lowerneck 3.67718 14.8337 5.42902
upperneck -11.7882 19.8128 -4.40245
head -3.47154 9.69699 -2.97463
rclavicle 7.55382e-015 -1.43125e-014
rhumerus -33.4208 -17.7172 -19.441
rradius 57.2717
rwrist -27.2541
rhand -19.5641 -38.9627
rfingers 7.12502
rthumb 6.76058 -68.8348
lclavicle 7.55382e-015 -1.43125e-014
lhumerus 24.4128 -47.1615 54.7597
lradius 36.6892
lwrist 13.1405
lhand -27.6594 -21.2614
lfingers 7.12502
lthumb -1.05692 8.7157
rfemur -14.4271 -23.2895 -1.53033
rtibia 43.7023
rfoot 7.11681 -11.6106
rtoes -0.0222231
lfemur -1.6479 16.808 2.9735
ltibia 40.1035
lfoot -36.0196 -8.1035
ltoes 23.5145
549
root 2.89695 17.2787 27.5793 -542.017 -10.6904 -530.792
lowerback 4.54079 2.40344 3.33134
upperback 2.93903 3.12661 -3.18944
thorax 0.852442 1.56478 -5.27856
lowerneck 3.93891 14.7731 5.45468
upperneck -12.2798 19.7218 -4.64519
head -3.66965 9.6474 -3.11511
rclavicle 5.80451e-014 -4.13472e-014
rhumerus -35.9444 -17.9944 -19.6599
rradius 59.5307
rwrist -29.4978
rhand -21.1721 -38.3073
rfingers 7.12502
rthumb 5.20813 -68.2233
lclavicle 5.80451e-014 -4.13472e-014
lhumerus 25.3946 -48.4707 54.4924
lradius 36.4845
lwrist 13.0034
lhand -27.3188 -20.5361
lfingers 7.12502
lthumb -0.728032 9.44243
rfemur -13.3639 -23.2794 -0.578324
rtibia 41.1879
rfoot 5.11819 -12.2549
rtoes -5.70109
lfemur -2.04098 16.808 2.88005
ltibia 39.9854
lfoot -37.0675 -5.80351
ltoes 20.4932
550
root 2.8671 17.3052 27.6255 -541.591 -9.86244 -530.827
lowerback 4.2909 2.5793 3.23214
upperback 2.76281 3.36111 -3.26588
thorax 0.835398 1.68172 -5.30025
lowerneck 4.06864 14.8218 5.26248
upperneck -12.4809 19.7837 -4.61613
head -3.78546 9.67856 -3.11121
rclavicle -1.39149e-014 4.77083e-014
rhumerus -38.4223 -17.8468 -19.8752
rradius 61.5428
rwrist -31.1882
rhand -22.386 -37.8631
rfingers 7.12502
rthumb 4.03605 -67.8047
lclavicle -1.39149e-014 4.77083e-014
lhumerus 26.0939 -49.7028 54.5312
lradius 36.2985
lwrist 12.8756
lhand -26.4945 -20.1108
lfingers 7.12502
lthumb 0.0681035 9.86889
rfemur -12.3097 -23.3711 -0.082207
rtibia 38.4751
rfoot 3.21476 -12.5991
rtoes -5.28764
lfemur -2.20137 16.7355 2.29113
ltibia 39.5472
lfoot -38.0429 -3.4191
ltoes 14.9879
551
root 2.84757 17.35 27.6507 -541.426 -9.54477 -530.64
lowerback 4.02483 2.55469 3.1424
upperback 2.74258 3.32822 -3.17621
thorax 0.947457 1.66825 -5.14204
lowerneck 4.01392 14.8962 4.98574
upperneck -12.5366 19.8689 -4.51564
head -3.83064 9.72493 -3.04462
rclavicle 1.0297e-013 -1.17681e-013
rhumerus -40.6142 -17.5052 -20.1993
rradius 63.1501
rwrist -31.9909
rhand -23.424 -37.6661
rfingers 7.12502
rthumb 3.03365 -67.6243
lclavicle 1.0297e-013 -1.17681e-013
lhumerus 26.521 -50.6142 54.9267
lradius 36.0261
lwrist 12.736
lhand -25.1951 -20.2228
lfingers 7.12502
lthumb 1.32314 9.75282
rfemur -10.4302 -23.4044 0.400224
rtibia 34.9295
rfoot 1.34473 -12.8727
rtoes -2.70347
lfemur -2.11252 16.2673 2.07622
ltibia 38.8212
lfoot -38.312 -2.15664
ltoes 13.9845
552
root 2.83033 17.3976 27.6798 -541.121 -8.88567 -530.278
lowerback 3.65928 2.63264 3.2873
upperback 2.65774 3.44395 -3.06848
thorax 1.07884 1.73507 -5.09724
lowerneck 4.10754 14.9485 4.82346
upperneck -12.7769 19.9145 -4.66716
head -3.93202 9.75612 -3.09845
rclavicle 2.14687e-014 -1.59028e-014
rhumerus -42.6156 -17.1969 -20.646
rradius 64.2491
rwrist -31.8566
rhand -24.2843 -37.5034
rfingers 7.12502
rthumb 2.20279 -67.4717
lclavicle 2.14687e-014 -1.59028e-014
lhumerus 26.6977 -51.4143 55.5025
lradius 35.8526
lwrist 12.6497
lhand -23.9486 -20.1513
lfingers 7.12502
lthumb 2.52696 9.81348
rfemur -9.11074 -22.8153 1.28936
rtibia 31.3974
rfoot 0.19943 -13.2663
rtoes -0.84469
lfemur -2.04113 16.1502 2.16743
ltibia 38.0165
lfoot -38.2446 -1.71957
ltoes 16.8422
553
root 2.81533 17.4479 27.7129 -540.752 -7.9814 -530.138
lowerback 3.35558 2.78836 3.2547
upperback 2.51557 3.65518 -3.05714
thorax 1.12233 1.84323 -5.05751
lowerneck 4.41642 14.9911 4.80349
upperneck -13.1368 19.9516 -4.99675
head -4.08324 9.78541 -3.25754
rclavicle 6.16232e-014 -8.26944e-014
rhumerus -44.5581 -16.9844 -21.1706
rradius 64.9634
rwrist -31.0476
rhand -24.5713 -37.3493
rfingers 7.12502
rthumb 1.92561 -67.3204
lclavicle 6.16232e-014 -8.26944e-014
lhumerus 26.3517 -52.0231 56.4638
lradius 35.8341
lwrist 12.2834
lhand -22.7926 -20.169
lfingers 7.12502
lthumb 3.64341 9.77965
rfemur -8.18782 -21.6714 1.99588
rtibia 28.1441
rfoot -0.387441 -13.7078
rtoes 0.332713
lfemur -1.92028 16.1131 1.97865
ltibia 37.1686
lfoot -38.2518 -1.1701
ltoes 18.8009
554
root 2.79944 17.5001 27.7442 -540.445 -6.97292 -530.227
lowerback 3.11975 2.97082 3.04783
upperback 2.43246 3.89005 -3.13865
thorax 1.18593 1.95867 -5.01706
lowerneck 4.43566 15.0901 4.81062
upperneck -13.1356 20.0703 -5.17271
head -4.05908 9.85654 -3.31483
rclavicle 7.95139e-016 -5.40694e-014
rhumerus -46.3564 -17.0356 -21.786
rradius 65.3465
rwrist -29.7712
rhand -24.4661 -37.2474
rfingers 7.12502
rthumb 2.0272 -67.2175
lclavicle 7.95139e-016 -5.40694e-014
lhumerus 25.8812 -52.615 57.3974
lradius 35.9502
lwrist 11.7363
lhand -22.046 -20.2494
lfingers 7.12502
lthumb 4.36431 9.68558
rfemur -7.46287 -20.2114 2.40959
rtibia 25.3608
rfoot -0.474936 -14.3914
rtoes -2.18738
lfemur -1.5778 15.9343 1.46492
ltibia 36.1766
lfoot -38.4976 -0.543206
ltoes 20.5388
555
root 2.78229 17.5566 27.7764 -540.181 -5.95866 -530.226
lowerback 2.95078 3.18326 3.05305
upperback 2.37024 4.16847 -3.28601
thorax 1.25918 2.09924 -5.16709
lowerneck 4.17536 15.2565 4.81145
upperneck -12.8184 20.2966 -5.08521
head -3.89308 9.97441 -3.23635
rclavicle 2.78299e-015 -9.22361e-014
rhumerus -48.1719 -17.3633 -22.4559
rradius 65.4833
rwrist -28.2767
rhand -24.1572 -37.2284
rfingers 7.12502
rthumb 2.32554 -67.1954
lclavicle 2.78299e-015 -9.22361e-014
lhumerus 25.6885 -53.5367 57.8375
lradius 36.2312
lwrist 11.3727
lhand -21.6396 -20.05
lfingers 7.12502
lthumb 4.75678 9.87662
rfemur -6.92366 -18.4067 2.95205
rtibia 22.8816
rfoot -0.324218 -15.446
rtoes -5.12325
lfemur -1.11121 15.7652 1.06044
ltibia 35.0568
lfoot -38.9807 0.144196
ltoes 21.3204
556
root 2.7677 17.617 27.8129 -539.904 -4.97744 -530.079
lowerback 2.7986 3.34617 3.1585
upperback 2.30184 4.38681 -3.36673
thorax 1.31361 2.21178 -5.30392
lowerneck 4.14554 15.4468 4.84207
upperneck -12.8036 20.5454 -5.19947
head -3.85223 10.1047 -3.27143
rclavicle 1.90833e-014 5.08889e-014
rhumerus -49.8236 -17.7203 -23.1852
rradius 65.4634
rwrist -26.9583
rhand -23.5689 -37.0271
rfingers 7.12502
rthumb 2.89366 -66.9873
lclavicle 1.90833e-014 5.08889e-014
lhumerus 25.2255 -54.2488 58.4757
lradius 36.5576
lwrist 11.1013
lhand -21.0495 -20.1123
lfingers 7.12502
lthumb 5.3266 9.80079
rfemur -6.52526 -16.1843 3.70637
rtibia 20.3454
rfoot 0.0749061 -16.4643
rtoes -4.29121
lfemur -0.604337 15.577 0.846964
ltibia 33.7702
lfoot -39.5677 1.28785
ltoes 20.8202
557
root 2.75348 17.6759 27.8497 -539.542 -3.98607 -530.008
lowerback 2.51957 3.47788 3.1395
upperback 2.25238 4.55931 -3.43054
thorax 1.44263 2.30116 -5.34295
lowerneck 4.0867 15.56 4.97525
upperneck -12.8675 20.6669 -5.56023
head -3.80052 10.1788 -3.39474
rclavicle 6.99722e-014 -1.19271e-013
rhumerus -51.1671 -18.0602 -23.9926
rradius 65.1929
rwrist -25.9166
rhand -22.8614 -36.5004
rfingers 7.12502
rthumb 3.57692 -66.4501
lclavicle 6.99722e-014 -1.19271e-013
lhumerus 24.5302 -54.8048 59.2424
lradius 37.029
lwrist 11.0801
lhand -20.6213 -20.2349
lfingers 7.12502
lthumb 5.74002 9.66739
rfemur -6.27346 -13.769 4.38009
rtibia 17.8236
rfoot 0.642997 -17.5604
rtoes -3.83412
lfemur -0.0965568 15.3413 0.508274
ltibia 32.2904
lfoot -39.9802 2.91106
ltoes 20.8334
558
root 2.74196 17.7363 27.8884 -539.253 -3.06535 -529.889
lowerback 2.33966 3.60272 3.18833
upperback 2.21345 4.72376 -3.50817
thorax 1.53359 2.38642 -5.43978
lowerneck 3.88104 15.6129 5.16362
upperneck -12.7719 20.7168 -5.79654
head -3.67669 10.211 -3.45763
rclavicle 3.85642e-014 1.01778e-013
rhumerus -52.4676 -18.3414 -24.8702
rradius 64.8205
rwrist -25.2423
rhand -22.1978 -36.1082
rfingers 7.12502
rthumb 4.21776 -66.0461
lclavicle 3.85642e-014 1.01778e-013
lhumerus 23.7042 -55.4354 60.0126
lradius 37.6615
lwrist 11.1685
lhand -20.2445 -20.248
lfingers 7.12502
lthumb 6.10381 9.64404
rfemur -5.91117 -10.9656 5.06995
rtibia 15.3059
rfoot 0.680051 -19.2353
rtoes -3.16656
lfemur 0.405477 15.0812 0.265092
ltibia 30.891
lfoot -40.3041 4.46605
ltoes 20.8197
559
root 2.73484 17.7988 27.9284 -539.183 -2.28828 -529.568
lowerback 2.40989 3.63151 3.40655
upperback 2.20185 4.76773 -3.49372
thorax 1.50527 2.41171 -5.55255
lowerneck 3.80606 15.7847 5.22823
upperneck -12.6901 20.9464 -5.85636
head -3.60611 10.3283 -3.46787
rclavicle 2.98177e-014 -2.8625e-014
rhumerus -53.6947 -18.4205 -25.8656
rradius 64.5072
rwrist -25.1436
rhand -21.4978 -36.0149
rfingers 7.12502
rthumb 4.89371 -65.9384
lclavicle 2.98177e-014 -2.8625e-014
lhumerus 22.6192 -55.9188 60.9672
lradius 38.2487
lwrist 10.9907
lhand -19.6617 -20.655
lfingers 7.12502
lthumb 6.66637 9.22007
rfemur -5.2878 -7.83312 5.94839
rtibia 12.8416
rfoot -0.0210499 -21.5172
rtoes 0.759879
lfemur 1.06894 14.6806 0.353231
ltibia 29.5473
lfoot -40.758 5.45182
ltoes 21.3291
